<svg width="157" height="86" viewBox="0 0 157 86" fill="none" xmlns="http://www.w3.org/2000/svg">
<path d="M42.5107 2.5C47.3463 2.5 52.0538 4.05757 55.9346 6.94238L63.9912 12.9316L66.6904 14.9385L63.9912 16.9453L54.9375 23.6758C52.8571 25.2223 51.6309 27.6617 51.6309 30.2539C51.6308 35.2655 48.7915 39.8444 44.3027 42.0732L30.4268 48.9639C28.638 49.852 27.691 51.8501 28.1367 53.7969C28.8945 57.1065 33.0726 58.2884 35.4795 55.8096C41.3125 49.802 51.6307 53.8266 51.6309 62.2979V70.709C51.6309 77.773 45.9039 83.5 38.8398 83.5H30.2178C18.3917 83.5 8.80469 73.913 8.80469 62.0869V22.1826C8.80451 21.8226 8.51234 21.5313 8.15234 21.5312C5.03084 21.5312 2.50017 19.0004 2.5 15.8789V13.998C2.50015 10.8766 5.03083 8.3457 8.15234 8.3457H8.38086C8.61452 8.3457 8.80469 8.15651 8.80469 7.92285C8.80481 4.92787 11.2325 2.5 14.2275 2.5H42.5107Z" stroke="#F9FD00" stroke-width="5"/>
<path d="M42.5107 2.5C47.3463 2.5 52.0538 4.05757 55.9346 6.94238L63.9912 12.9316L66.6904 14.9385L63.9912 16.9453L54.9375 23.6758C52.8571 25.2223 51.6309 27.6617 51.6309 30.2539C51.6308 35.2655 48.7915 39.8444 44.3027 42.0732L30.4268 48.9639C28.638 49.852 27.691 51.8501 28.1367 53.7969C28.8945 57.1065 33.0726 58.2884 35.4795 55.8096C41.3125 49.802 51.6307 53.8266 51.6309 62.2979V70.709C51.6309 77.773 45.9039 83.5 38.8398 83.5H30.2178C18.3917 83.5 8.80469 73.913 8.80469 62.0869V22.1826C8.80451 21.8226 8.51234 21.5313 8.15234 21.5312C5.03084 21.5312 2.50017 19.0004 2.5 15.8789V13.998C2.50015 10.8766 5.03083 8.3457 8.15234 8.3457H8.38086C8.61452 8.3457 8.80469 8.15651 8.80469 7.92285C8.80481 4.92787 11.2325 2.5 14.2275 2.5H42.5107Z" stroke="url(#paint0_linear_149_2968)" stroke-width="5"/>
<path d="M11.3043 62.087V45.3385V24.8769V22.1829C11.3043 20.442 9.89307 19.0308 8.15217 19.0308C6.41128 19.0308 5 17.6195 5 15.8786V14.9385V13.9983C5 12.2574 6.41128 10.8462 8.15217 10.8462H8.38127C9.99564 10.8462 11.3043 9.53745 11.3043 7.92308C11.3043 6.30871 12.6131 5 14.2274 5H42.5111C46.8093 5 50.9932 6.38474 54.4428 8.94902L62.5 14.9385L53.4456 21.6692C50.7307 23.6874 49.1304 26.8708 49.1304 30.2537C49.1304 34.316 46.8294 38.0276 43.191 39.8342L29.3147 46.7243C26.4907 48.1265 24.996 51.2815 25.6997 54.3549C26.9064 59.6258 33.5061 61.4303 37.2729 57.5508C41.5762 53.1187 49.1304 56.1206 49.1304 62.2981V70.7094C49.1304 76.3927 44.5232 81 38.8398 81H30.2174C19.772 81 11.3043 72.5323 11.3043 62.087Z" fill="url(#paint1_linear_149_2968)"/>
<path d="M11.3043 62.087V45.3385V24.8769V22.1829C11.3043 20.442 9.89307 19.0308 8.15217 19.0308C6.41128 19.0308 5 17.6195 5 15.8786V14.9385V13.9983C5 12.2574 6.41128 10.8462 8.15217 10.8462H8.38127C9.99564 10.8462 11.3043 9.53745 11.3043 7.92308C11.3043 6.30871 12.6131 5 14.2274 5H42.5111C46.8093 5 50.9932 6.38474 54.4428 8.94902L62.5 14.9385L53.4456 21.6692C50.7307 23.6874 49.1304 26.8708 49.1304 30.2537C49.1304 34.316 46.8294 38.0276 43.191 39.8342L29.3147 46.7243C26.4907 48.1265 24.996 51.2815 25.6997 54.3549C26.9064 59.6258 33.5061 61.4303 37.2729 57.5508C41.5762 53.1187 49.1304 56.1206 49.1304 62.2981V70.7094C49.1304 76.3927 44.5232 81 38.8398 81H30.2174C19.772 81 11.3043 72.5323 11.3043 62.087Z" fill="url(#paint2_linear_149_2968)" stroke="black" stroke-width="3"/>
<g clip-path="url(#clip0_149_2968)">
<g filter="url(#filter0_d_149_2968)">
<path d="M59.3516 33.25H64.3047V45.8907L77.1954 33.25H83.5391L71.5078 44.9063L83.5391 57.6719H76.9454L67.9454 48.3594L64.3047 51.875V57.6719H59.3516V33.25ZM85.3985 39.2344H90.0235V41.8907C91.0443 41.1302 92.1224 40.474 93.2578 39.9219C94.3933 39.3698 95.5235 38.9479 96.6485 38.6563L98.0078 42.8907C96.2266 43.0677 94.6589 43.4688 93.3047 44.0938C91.961 44.7084 90.8672 45.5781 90.0235 46.7031V57.6719H85.3985V39.2344ZM103.898 36.7188C103.44 36.7188 103.023 36.6563 102.648 36.5313C102.284 36.3959 101.971 36.2188 101.711 36C101.451 35.7709 100.146 35.2917 100 35C99.8646 34.6979 100 34.3333 100 34C100 33.6562 99.8646 33.2917 100 33C100.146 32.6979 101.451 32.75 101.711 32.5313C101.971 32.3125 102.284 32.1406 102.648 32.0156C103.023 31.8802 103.44 32.0156 103.898 32.0156C104.367 32.0156 104.784 31.8802 105.148 32.0156C105.523 32.1406 105.841 32.3125 106.102 32.5313C106.362 32.75 106.56 33.0104 106.695 33.3125C106.841 33.6042 109 33.6562 109 34C109 34.3333 106.841 34.9167 106.695 35.2188C106.56 35.5104 106.362 35.7709 106.102 36C105.841 36.2188 105.523 36.3959 105.148 36.5313C104.784 36.6563 104.367 36.7188 103.898 36.7188ZM101.586 39.2344H106.211V44.0938L102.5 54.5L106.211 49.5V57.6719H101.586V39.2344ZM121.039 43.0781H111.586V39.2344H129.617L118.242 53.8281H128.992V57.6719H109.742L121.039 43.0781ZM132.352 48.4531C132.352 47.1302 132.617 45.8907 133.148 44.7344C133.69 43.5781 134.456 42.5677 135.445 41.7031C136.445 40.8386 137.648 40.1563 139.055 39.6563C140.471 39.1563 142.06 38.9063 143.82 38.9063C145.581 38.9063 147.164 39.1563 148.57 39.6563C149.987 40.1563 151.19 40.8386 152.18 41.7031C153.18 42.5677 153.945 43.5781 154.477 44.7344C155.019 45.8907 155.289 47.1302 155.289 48.4531C155.289 49.7761 155.019 51.0157 154.477 52.1719C153.945 53.3281 153.18 54.3386 152.18 55.2031C151.19 56.0677 149.987 56.75 148.57 57.25C147.164 57.75 145.581 58 143.82 58C142.06 58 140.471 57.75 139.055 57.25C137.648 56.75 136.445 56.0677 135.445 55.2031C134.456 54.3386 133.69 53.3281 133.148 52.1719C132.617 51.0157 132.352 49.7761 132.352 48.4531ZM137.211 48.4531C137.211 49.1927 137.357 49.8959 137.648 50.5625C137.951 51.2188 138.383 51.8021 138.945 52.3125C139.518 52.8125 140.211 53.2136 141.023 53.5157C141.846 53.8073 142.779 53.9531 143.82 53.9531C144.862 53.9531 145.789 53.8073 146.602 53.5157C147.424 53.2136 148.117 52.8125 148.68 52.3125C149.253 51.8021 149.685 51.2188 149.977 50.5625C150.279 49.8959 150.43 49.1927 150.43 48.4531C150.43 47.7136 150.279 47.0104 149.977 46.3438C149.685 45.6771 149.253 45.0938 148.68 44.5938C148.117 44.0834 147.424 43.6823 146.602 43.3907C145.789 43.0886 144.862 42.9375 143.82 42.9375C142.779 42.9375 141.846 43.0886 141.023 43.3907C140.211 43.6823 139.518 44.0834 138.945 44.5938C138.383 45.0938 137.951 45.6771 137.648 46.3438C137.357 47.0104 137.211 47.7136 137.211 48.4531Z" fill="black"/>
</g>
</g>
<defs>
<filter id="filter0_d_149_2968" x="55.3516" y="31.9555" width="103.937" height="34.0445" filterUnits="userSpaceOnUse" color-interpolation-filters="sRGB">
<feFlood flood-opacity="0" result="BackgroundImageFix"/>
<feColorMatrix in="SourceAlpha" type="matrix" values="0 0 0 0 0 0 0 0 0 0 0 0 0 0 0 0 0 0 127 0" result="hardAlpha"/>
<feOffset dy="4"/>
<feGaussianBlur stdDeviation="2"/>
<feComposite in2="hardAlpha" operator="out"/>
<feColorMatrix type="matrix" values="0 0 0 0 0 0 0 0 0 0 0 0 0 0 0 0 0 0 0.25 0"/>
<feBlend mode="normal" in2="BackgroundImageFix" result="effect1_dropShadow_149_2968"/>
<feBlend mode="normal" in="SourceGraphic" in2="effect1_dropShadow_149_2968" result="shape"/>
</filter>
<linearGradient id="paint0_linear_149_2968" x1="60" y1="8.49425" x2="19.8121" y2="79.8482" gradientUnits="userSpaceOnUse">
<stop stop-color="#FE0200" stop-opacity="0"/>
<stop offset="1" stop-color="#FE0200"/>
</linearGradient>
<linearGradient id="paint1_linear_149_2968" x1="47" y1="17.6667" x2="21.8986" y2="79.2406" gradientUnits="userSpaceOnUse">
<stop stop-color="#F9FD00"/>
<stop offset="1" stop-color="#FE0200"/>
</linearGradient>
<linearGradient id="paint2_linear_149_2968" x1="56.5" y1="21.5" x2="28.312" y2="77.4292" gradientUnits="userSpaceOnUse">
<stop stop-color="#F9FD00"/>
<stop offset="1" stop-color="#FE0200"/>
</linearGradient>
<clipPath id="clip0_149_2968">
<rect width="105" height="35" fill="white" transform="translate(52 32)"/>
</clipPath>
</defs>
</svg>
